<svg width="91" height="91" viewBox="0 0 91 91" fill="none" xmlns="http://www.w3.org/2000/svg">
<path d="M45.2669 90.8231C70.1949 90.8231 90.403 70.6036 90.403 45.6615C90.403 20.7195 70.1949 0.5 45.2669 0.5C20.339 0.5 0.130859 20.7195 0.130859 45.6615C0.130859 70.6036 20.339 90.8231 45.2669 90.8231Z" fill="#1E4FAD"/>
<path fill-rule="evenodd" clip-rule="evenodd" d="M51.0736 28.8904C52.7169 28.8538 54.3602 28.8904 56.0035 28.8904C56.1861 28.8904 56.4052 28.8904 56.6973 28.8904V20.3404C55.8209 20.2673 54.908 20.1211 53.995 20.0846C52.3152 20.0115 50.6354 19.9385 48.9556 19.975C46.3993 20.0115 43.9526 20.6692 41.8346 22.1673C39.3879 23.9211 38.0732 26.4058 37.562 29.2923C37.3429 30.4981 37.3064 31.7404 37.2698 32.9461C37.2333 34.8461 37.2698 36.7827 37.2698 38.6827V39.4135H29.0898V48.95H37.1968V72.9558H47.1297V48.9865H55.2366C55.6383 45.8077 56.04 42.6654 56.4782 39.4135C55.8209 39.4135 55.2366 39.4135 54.6523 39.4135C52.3517 39.4135 47.0566 39.4135 47.0566 39.4135C47.0566 39.4135 47.0931 34.7 47.1297 32.6173C47.1662 29.8404 48.846 28.9634 51.0736 28.8904Z" fill="white"/>
</svg>
