<svg width="91" height="91" viewBox="0 0 91 91" fill="none" xmlns="http://www.w3.org/2000/svg">
<path d="M45.5228 90.8231C70.4508 90.8231 90.6589 70.6036 90.6589 45.6615C90.6589 20.7195 70.4508 0.5 45.5228 0.5C20.5948 0.5 0.386719 20.7195 0.386719 45.6615C0.386719 70.6036 20.5948 90.8231 45.5228 90.8231Z" fill="#007AB5"/>
<path d="M26.2421 36.2346H35.4081V65.6846H26.2421V36.2346ZM30.8068 21.5827C33.7283 21.5827 36.1019 23.9577 36.1019 26.8808C36.1019 29.8039 33.7283 32.1789 30.8068 32.1789C27.8854 32.1789 25.5117 29.8039 25.5117 26.8808C25.5117 23.9577 27.8854 21.5827 30.8068 21.5827Z" fill="white"/>
<path d="M41.1406 36.2346H49.9049V40.2538H50.0145C51.2561 37.9519 54.214 35.5038 58.6692 35.5038C67.9447 35.5038 69.6246 41.6058 69.6246 49.5346V65.6846H60.4951V51.3615C60.4951 47.9269 60.4221 43.5423 55.7478 43.5423C51.0004 43.5423 50.2701 47.2692 50.2701 51.1058V65.6846H41.1406V36.2346Z" fill="white"/>
</svg>
