<svg width="91" height="91" viewBox="0 0 91 91" fill="none" xmlns="http://www.w3.org/2000/svg">
<path d="M45.5443 90.8231C70.4722 90.8231 90.6803 70.6036 90.6803 45.6615C90.6803 20.7195 70.4722 0.5 45.5443 0.5C20.6163 0.5 0.408203 20.7195 0.408203 45.6615C0.408203 70.6036 20.6163 90.8231 45.5443 90.8231Z" fill="url(#paint0_linear_465_7)"/>
<path d="M69.5357 33.8596C69.2071 30.7173 68.002 27.9404 65.6648 25.7115C63.2181 23.3731 60.1871 22.3134 56.9005 22.1673C51.2768 21.875 37.9478 21.6558 33.237 22.4231C27.8688 23.3 24.3631 26.4058 22.9024 31.7038C21.7704 35.7596 21.9895 54.5404 22.6468 58.5596C23.5597 64.0769 26.8098 67.5846 32.251 69.0096C36.0123 69.9961 54.5634 69.85 58.7264 69.1923C64.2406 68.3154 67.7829 65.0635 69.2071 59.6192C70.3026 55.3808 69.9374 37.6231 69.5357 33.8596ZM65.1536 57.7558C64.4963 61.9211 61.7574 64.5154 57.5578 64.9904C53.687 65.4288 36.487 65.6481 32.9083 64.6615C29.4756 63.7115 27.5402 61.3365 26.9559 57.9019C26.4081 54.6134 26.2621 38.1711 26.9559 33.75C27.5767 29.6211 30.3521 27.0269 34.5151 26.5519C38.7512 26.0769 53.9791 26.0404 58.0691 26.6615C62.2321 27.3192 64.8249 30.0961 65.2631 34.2981C65.6648 38.1711 65.8109 53.5173 65.1536 57.7558ZM46.0182 33.4942C39.2624 33.4942 33.7482 38.975 33.7482 45.7711C33.7482 52.5308 39.2259 58.0481 46.0182 58.0481C52.774 58.0481 58.2882 52.5673 58.2882 45.7711C58.2882 38.975 52.8105 33.4942 46.0182 33.4942ZM45.9452 53.7C41.563 53.6634 38.0573 50.0827 38.0938 45.6981C38.1304 41.3134 41.7091 37.8058 46.0912 37.8423C50.4734 37.8788 53.9791 41.4596 53.9426 45.8442C53.9061 50.1923 50.3273 53.7365 45.9452 53.7ZM61.6479 33.0192C61.6479 34.5904 60.3697 35.9058 58.7629 35.8692C57.1927 35.8692 55.878 34.5904 55.9146 32.9827C55.9146 31.4115 57.1927 30.0961 58.7995 30.1327C60.3697 30.1692 61.6479 31.4481 61.6479 33.0192Z" fill="white"/>
<path d="M69.5357 33.8596C69.2071 30.7173 68.002 27.9404 65.6648 25.7115C63.2181 23.3731 60.1871 22.3134 56.9005 22.1673C51.2768 21.875 37.9478 21.6558 33.237 22.4231C27.8688 23.3 24.3631 26.4058 22.9024 31.7038C21.7704 35.7596 21.9895 54.5404 22.6468 58.5596C23.5597 64.0769 26.8098 67.5846 32.251 69.0096C36.0123 69.9961 54.5634 69.85 58.7264 69.1923C64.2406 68.3154 67.7829 65.0635 69.2071 59.6192C70.3026 55.3808 69.9374 37.6231 69.5357 33.8596ZM65.1536 57.7558C64.4963 61.9211 61.7574 64.5154 57.5578 64.9904C53.687 65.4288 36.487 65.6481 32.9083 64.6615C29.4756 63.7115 27.5402 61.3365 26.9559 57.9019C26.4081 54.6134 26.2621 38.1711 26.9559 33.75C27.5767 29.6211 30.3521 27.0269 34.5151 26.5519C38.7512 26.0769 53.9791 26.0404 58.0691 26.6615C62.2321 27.3192 64.8249 30.0961 65.2631 34.2981C65.6648 38.1711 65.8109 53.5173 65.1536 57.7558ZM46.0182 33.4942C39.2624 33.4942 33.7482 38.975 33.7482 45.7711C33.7482 52.5308 39.2259 58.0481 46.0182 58.0481C52.774 58.0481 58.2882 52.5673 58.2882 45.7711C58.2882 38.975 52.8105 33.4942 46.0182 33.4942ZM45.9452 53.7C41.563 53.6634 38.0573 50.0827 38.0938 45.6981C38.1304 41.3134 41.7091 37.8058 46.0912 37.8423C50.4734 37.8788 53.9791 41.4596 53.9426 45.8442C53.9061 50.1923 50.3273 53.7365 45.9452 53.7ZM61.6479 33.0192C61.6479 34.5904 60.3697 35.9058 58.7629 35.8692C57.1927 35.8692 55.878 34.5904 55.9146 32.9827C55.9146 31.4115 57.1927 30.0961 58.7995 30.1327C60.3697 30.1692 61.6479 31.4481 61.6479 33.0192Z" fill="white"/>
<defs>
<linearGradient id="paint0_linear_465_7" x1="89.5848" y1="-8.60027" x2="17.2562" y2="80.4428" gradientUnits="userSpaceOnUse">
<stop offset="0.0108" stop-color="#3542E0"/>
<stop offset="0.1748" stop-color="#3841DF"/>
<stop offset="0.2744" stop-color="#403FDA"/>
<stop offset="0.357" stop-color="#4E3CD2"/>
<stop offset="0.4301" stop-color="#6337C7"/>
<stop offset="0.4971" stop-color="#7D31B9"/>
<stop offset="0.5595" stop-color="#9E2AA8"/>
<stop offset="0.6173" stop-color="#C32193"/>
<stop offset="0.6236" stop-color="#C82091"/>
<stop offset="0.7612" stop-color="#F62B37"/>
<stop offset="1" stop-color="#FFC658"/>
</linearGradient>
</defs>
</svg>
